<?xml version="1.0" encoding="UTF-8"?>
<svg xmlns="http://www.w3.org/2000/svg" xmlns:xlink="http://www.w3.org/1999/xlink" width="38px" height="38px" viewBox="0 0 38 38" version="1.1">
<g id="surface1">
<rect x="0" y="0" width="38" height="38" style="fill:rgb(100%,100%,100%);fill-opacity:1;stroke:none;"/>
<path style=" stroke:none;fill-rule:nonzero;fill:rgb(81.960784%,81.960784%,81.960784%);fill-opacity:1;" d="M 4.535156 16.019531 L 4.535156 16.804688 C 3.726562 16.839844 2.976562 17.378906 2.65625 18.117188 C 2.578125 18.304688 2.5 18.515625 2.496094 18.722656 L 2.816406 18.722656 C 2.820312 18.5625 2.886719 18.398438 2.945312 18.253906 C 3.203125 17.652344 3.863281 17.128906 4.535156 17.125 L 4.535156 18.046875 L 4.808594 18.046875 L 4.808594 17.582031 C 5.195312 17.585938 5.65625 17.863281 5.847656 18.195312 L 5.859375 18.195312 C 5.859375 18.097656 5.890625 17.929688 5.847656 17.84375 C 5.808594 17.765625 5.699219 17.703125 5.628906 17.652344 C 5.386719 17.476562 5.105469 17.390625 4.808594 17.355469 L 4.808594 16.019531 Z M 4.535156 16.019531 "/>
<path style=" stroke:none;fill-rule:nonzero;fill:rgb(1.176471%,40.784314%,75.294118%);fill-opacity:1;" d="M 4.933594 16.816406 L 4.933594 17.136719 C 5.820312 17.25 6.445312 18.003906 6.554688 18.859375 L 5.628906 18.859375 L 5.628906 19.039062 L 7.660156 19.039062 L 7.660156 18.859375 L 6.863281 18.859375 C 6.859375 17.808594 5.933594 16.945312 4.933594 16.816406 Z M 4.933594 16.816406 "/>
<path style=" stroke:none;fill-rule:nonzero;fill:rgb(81.960784%,81.960784%,81.960784%);fill-opacity:1;" d="M 33.898438 17.636719 C 34.058594 17.59375 34.210938 17.480469 34.363281 17.414062 C 34.75 17.246094 35.128906 17.136719 35.550781 17.171875 L 35.550781 16.921875 C 35.0625 16.921875 34.621094 17.066406 34.226562 17.355469 C 34.113281 17.4375 33.976562 17.523438 33.898438 17.636719 Z M 33.898438 17.636719 "/>
<path style=" stroke:none;fill-rule:nonzero;fill:rgb(6.666667%,74.901961%,95.294118%);fill-opacity:1;" d="M 3.796875 17.867188 L 4.195312 17.65625 L 4.398438 17.585938 L 4.410156 17.375 C 4.25 17.382812 4.085938 17.445312 3.945312 17.515625 C 3.902344 17.535156 3.824219 17.5625 3.800781 17.609375 C 3.773438 17.671875 3.796875 17.792969 3.796875 17.867188 Z M 3.796875 17.867188 "/>
<path style=" stroke:none;fill-rule:nonzero;fill:rgb(1.176471%,63.529412%,88.627451%);fill-opacity:1;" d="M 3.785156 17.605469 C 3.609375 17.722656 3.339844 17.914062 3.277344 18.128906 C 3.230469 18.289062 3.269531 18.519531 3.269531 18.6875 L 3.28125 18.6875 C 3.3125 18.472656 3.4375 18.257812 3.574219 18.09375 C 3.695312 17.945312 3.878906 17.828125 3.785156 17.605469 Z M 3.785156 17.605469 "/>
<path style=" stroke:none;fill-rule:nonzero;fill:rgb(1.176471%,40.784314%,75.294118%);fill-opacity:1;" d="M 34.570312 17.722656 C 34.394531 17.757812 34.367188 18.082031 34.464844 18.203125 C 34.542969 18.296875 34.800781 18.285156 34.910156 18.261719 C 35.078125 18.226562 35.101562 17.902344 35.007812 17.785156 C 34.929688 17.683594 34.6875 17.699219 34.570312 17.722656 Z M 34.570312 17.722656 "/>
<path style=" stroke:none;fill-rule:nonzero;fill:rgb(100%,100%,100%);fill-opacity:1;" d="M 34.613281 17.902344 C 34.613281 17.945312 34.597656 18.039062 34.625 18.074219 C 34.652344 18.109375 34.816406 18.109375 34.84375 18.074219 C 34.871094 18.039062 34.855469 17.945312 34.855469 17.902344 Z M 34.613281 17.902344 "/>
<path style=" stroke:none;fill-rule:nonzero;fill:rgb(6.666667%,74.901961%,95.294118%);fill-opacity:1;" d="M 36.3125 17.945312 L 36.15625 18.402344 L 35.960938 18.835938 L 36.175781 18.835938 L 36.3125 18.175781 L 36.3125 17.945312 M 18.019531 18.4375 L 20.390625 18.4375 C 20.386719 18.210938 20.265625 18.0625 20.046875 18.003906 C 19.734375 17.921875 19.378906 17.957031 19.058594 17.957031 C 18.824219 17.957031 18.550781 17.9375 18.328125 18.011719 C 18.136719 18.074219 18.023438 18.238281 18.019531 18.4375 M 7.988281 17.992188 L 7.988281 18.457031 L 10.132812 18.457031 L 10.132812 17.992188 L 7.988281 17.992188 M 10.269531 17.992188 L 10.269531 18.457031 L 12.414062 18.457031 L 12.414062 17.992188 L 10.269531 17.992188 M 12.539062 17.992188 L 12.539062 18.457031 L 14.78125 18.457031 L 14.78125 17.992188 L 12.539062 17.992188 M 14.976562 17.992188 L 14.976562 18.457031 L 16.390625 18.457031 L 16.171875 18.140625 L 16.066406 18.003906 L 15.761719 17.992188 L 14.976562 17.992188 M 17.152344 17.992188 L 17.152344 18.457031 L 17.792969 18.457031 L 17.792969 17.992188 L 17.152344 17.992188 M 20.675781 17.992188 L 20.675781 18.457031 L 21.324219 18.457031 L 21.324219 17.992188 L 20.675781 17.992188 M 21.417969 17.992188 L 21.574219 18.320312 L 21.648438 18.445312 L 21.839844 18.457031 L 22.328125 18.457031 L 22.171875 18.128906 L 22.105469 18.003906 L 21.90625 17.992188 L 21.417969 17.992188 M 23.445312 18.457031 L 23.933594 18.457031 L 24.125 18.445312 L 24.199219 18.3125 L 24.355469 17.992188 L 23.867188 17.992188 L 23.667969 18.003906 L 23.589844 18.152344 L 23.445312 18.457031 M 24.4375 17.992188 L 24.4375 18.457031 L 26.683594 18.457031 L 26.683594 17.992188 Z M 24.4375 17.992188 "/>
<path style=" stroke:none;fill-rule:nonzero;fill:rgb(1.176471%,40.784314%,75.294118%);fill-opacity:1;" d="M 3.257812 18.140625 C 3.136719 18.351562 3.035156 18.605469 3.03125 18.859375 L 1.6875 18.859375 L 1.6875 19.121094 L 2.246094 19.121094 C 2.300781 19.121094 2.410156 19.097656 2.457031 19.132812 C 2.5 19.15625 2.484375 19.238281 2.492188 19.277344 C 2.511719 19.417969 2.539062 19.554688 2.582031 19.6875 C 2.707031 20.058594 2.9375 20.472656 3.269531 20.691406 C 3.269531 20.566406 3.308594 20.378906 3.265625 20.257812 C 3.226562 20.148438 3.105469 20.042969 3.042969 19.941406 C 2.902344 19.699219 2.796875 19.402344 2.792969 19.121094 L 3.269531 19.121094 L 3.269531 18.449219 Z M 3.257812 18.140625 "/>
<path style=" stroke:none;fill-rule:nonzero;fill:rgb(81.960784%,81.960784%,81.960784%);fill-opacity:1;" d="M 26.875 18.21875 C 26.875 18.273438 26.855469 18.375 26.902344 18.417969 C 26.964844 18.46875 27.152344 18.4375 27.230469 18.4375 L 28.128906 18.4375 C 28.28125 18.4375 28.550781 18.390625 28.550781 18.605469 C 28.554688 18.789062 28.398438 18.789062 28.253906 18.789062 L 27.285156 18.789062 C 27.210938 18.789062 26.929688 18.746094 26.902344 18.835938 C 26.882812 18.902344 26.871094 19.164062 26.945312 19.191406 C 27.039062 19.230469 27.207031 19.199219 27.308594 19.199219 L 28.082031 19.199219 C 28.195312 19.199219 28.339844 19.175781 28.449219 19.207031 C 28.585938 19.25 28.597656 19.5 28.460938 19.550781 C 28.378906 19.578125 28.273438 19.5625 28.1875 19.5625 L 27 19.5625 C 26.832031 19.5625 26.875 19.734375 26.875 19.859375 C 26.875 19.90625 26.863281 19.988281 26.902344 20.019531 C 26.941406 20.050781 27.003906 20.042969 27.046875 20.042969 L 28.378906 20.042969 C 28.546875 20.042969 28.746094 20.058594 28.894531 19.964844 C 29.152344 19.792969 29.167969 19.152344 28.917969 18.972656 C 29.074219 18.8125 29.0625 18.644531 29.0625 18.4375 C 29.0625 18.382812 29.074219 18.253906 29.015625 18.226562 C 28.96875 18.203125 28.886719 18.21875 28.835938 18.21875 L 26.875 18.21875 M 29.929688 18.789062 C 29.929688 18.679688 29.9375 18.554688 30.03125 18.488281 C 30.121094 18.421875 30.269531 18.4375 30.375 18.4375 L 31.445312 18.4375 C 31.484375 18.4375 31.535156 18.441406 31.5625 18.410156 C 31.601562 18.363281 31.582031 18.273438 31.582031 18.21875 L 29.691406 18.21875 C 29.644531 18.21875 29.566406 18.203125 29.523438 18.230469 C 29.480469 18.257812 29.460938 18.332031 29.449219 18.378906 C 29.40625 18.523438 29.40625 18.664062 29.40625 18.8125 C 29.40625 19.167969 29.3125 19.730469 29.691406 19.9375 C 29.765625 19.976562 29.847656 20 29.929688 20.015625 C 30.25 20.074219 30.589844 20.042969 30.910156 20.042969 C 31.085938 20.042969 31.285156 20.058594 31.445312 19.96875 C 31.523438 19.929688 31.582031 19.863281 31.617188 19.78125 C 31.71875 19.542969 31.71875 19.039062 31.492188 18.875 C 31.339844 18.769531 31.140625 18.789062 30.96875 18.789062 L 29.929688 18.789062 M 32.101562 18.230469 C 31.992188 18.296875 31.988281 18.53125 31.980469 18.640625 C 31.957031 18.992188 31.882812 19.550781 32.136719 19.835938 C 32.246094 19.957031 32.410156 20.003906 32.5625 20.023438 C 32.835938 20.0625 33.121094 20.042969 33.394531 20.042969 C 33.617188 20.042969 33.875 20.046875 34.066406 19.929688 C 34.449219 19.695312 34.339844 19.097656 34.339844 18.722656 C 34.339844 18.585938 34.34375 18.335938 34.230469 18.238281 C 34.195312 18.207031 34.132812 18.21875 34.089844 18.21875 L 32.550781 18.21875 C 32.441406 18.21875 32.195312 18.171875 32.101562 18.230469 M 35.539062 18.378906 C 35.359375 18.71875 35.113281 19.03125 34.871094 19.324219 C 34.339844 19.960938 33.695312 20.554688 32.960938 20.949219 C 32.6875 21.101562 32.402344 21.222656 32.097656 21.292969 C 31.914062 21.335938 31.714844 21.328125 31.585938 21.183594 C 31.484375 21.070312 31.492188 20.914062 31.503906 20.773438 C 31.519531 20.5 31.578125 20.253906 31.664062 19.996094 C 31.539062 20.070312 31.453125 20.257812 31.398438 20.382812 C 31.238281 20.742188 31.125 21.351562 31.570312 21.546875 C 31.644531 21.578125 31.722656 21.601562 31.800781 21.613281 C 32.191406 21.664062 32.574219 21.53125 32.929688 21.375 C 33.722656 21.019531 34.40625 20.4375 34.992188 19.804688 C 35.128906 19.65625 35.253906 19.503906 35.378906 19.347656 C 35.433594 19.277344 35.511719 19.195312 35.542969 19.109375 C 35.582031 18.988281 35.550781 18.8125 35.550781 18.6875 C 35.550781 18.59375 35.574219 18.464844 35.539062 18.378906 Z M 35.539062 18.378906 "/>
<path style=" stroke:none;fill-rule:nonzero;fill:rgb(1.176471%,63.529412%,88.627451%);fill-opacity:1;" d="M 18.019531 18.835938 L 20.207031 18.835938 L 20.207031 18.824219 C 19.730469 18.6875 19.21875 18.808594 18.738281 18.714844 C 18.539062 18.675781 18.609375 18.453125 18.785156 18.449219 C 18.632812 18.382812 18.363281 18.4375 18.203125 18.4375 C 18.160156 18.4375 18.050781 18.417969 18.019531 18.453125 C 17.964844 18.523438 18.011719 18.75 18.019531 18.835938 M 19.625 18.4375 L 19.625 18.449219 C 19.738281 18.453125 19.78125 18.523438 19.785156 18.628906 L 20.390625 18.628906 L 20.390625 18.4375 Z M 19.625 18.4375 "/>
<path style=" stroke:none;fill-rule:nonzero;fill:rgb(100%,100%,100%);fill-opacity:1;" d="M 32.769531 18.441406 C 32.703125 18.449219 32.628906 18.449219 32.578125 18.496094 C 32.441406 18.617188 32.507812 18.964844 32.507812 19.132812 C 32.507812 19.242188 32.480469 19.40625 32.566406 19.496094 C 32.636719 19.566406 32.765625 19.5625 32.859375 19.5625 C 33.101562 19.5625 33.371094 19.59375 33.613281 19.554688 C 33.914062 19.503906 33.816406 19.039062 33.816406 18.8125 C 33.816406 18.714844 33.828125 18.585938 33.753906 18.507812 C 33.691406 18.441406 33.570312 18.4375 33.488281 18.4375 C 33.253906 18.429688 33 18.410156 32.769531 18.441406 Z M 32.769531 18.441406 "/>
<path style=" stroke:none;fill-rule:nonzero;fill:rgb(1.176471%,63.529412%,88.627451%);fill-opacity:1;" d="M 7.988281 18.457031 L 7.988281 18.847656 L 8.617188 18.847656 L 8.617188 18.46875 L 10.132812 18.46875 L 9.925781 18.457031 L 7.988281 18.457031 M 10.269531 18.457031 L 10.269531 18.847656 L 10.894531 18.847656 L 10.894531 18.46875 L 12.414062 18.46875 L 12.207031 18.457031 L 10.269531 18.457031 M 12.539062 18.457031 L 12.539062 18.847656 L 14.703125 18.847656 L 14.703125 18.753906 L 13.152344 18.753906 L 13.152344 18.46875 L 14.78125 18.46875 L 14.566406 18.457031 L 12.539062 18.457031 M 14.976562 18.457031 L 14.976562 18.847656 L 15.601562 18.847656 L 15.59375 18.503906 C 15.746094 18.527344 15.765625 18.765625 15.890625 18.835938 C 15.949219 18.867188 16.050781 18.847656 16.117188 18.847656 L 16.664062 18.847656 C 16.609375 18.75 16.539062 18.664062 16.476562 18.574219 C 16.453125 18.539062 16.425781 18.484375 16.386719 18.464844 C 16.28125 18.417969 16.082031 18.457031 15.96875 18.457031 L 14.976562 18.457031 M 17.152344 18.457031 L 17.164062 18.847656 L 17.792969 18.847656 L 17.792969 18.457031 L 17.152344 18.457031 M 20.675781 18.457031 L 20.675781 18.847656 L 21.324219 18.847656 L 21.324219 18.457031 L 20.675781 18.457031 M 21.644531 18.457031 C 21.683594 18.554688 21.753906 18.777344 21.84375 18.835938 C 21.886719 18.863281 21.980469 18.847656 22.03125 18.847656 L 22.523438 18.847656 L 22.394531 18.585938 L 22.332031 18.46875 L 22.144531 18.457031 L 21.644531 18.457031 M 23.261719 18.847656 L 23.742188 18.847656 C 23.792969 18.847656 23.886719 18.863281 23.929688 18.835938 C 24.015625 18.777344 24.089844 18.554688 24.128906 18.457031 L 23.640625 18.457031 C 23.585938 18.457031 23.496094 18.441406 23.449219 18.46875 C 23.363281 18.523438 23.289062 18.753906 23.261719 18.847656 M 24.4375 18.457031 L 24.4375 18.847656 L 26.601562 18.847656 L 26.601562 18.753906 L 25.050781 18.753906 L 25.050781 18.46875 L 26.683594 18.46875 L 26.464844 18.457031 Z M 24.4375 18.457031 "/>
<path style=" stroke:none;fill-rule:nonzero;fill:rgb(1.176471%,40.784314%,75.294118%);fill-opacity:1;" d="M 4.648438 18.828125 C 4.445312 18.859375 4.488281 19.179688 4.695312 19.152344 C 4.902344 19.121094 4.855469 18.796875 4.648438 18.828125 M 18.019531 18.835938 C 18.074219 19.105469 18.28125 19.183594 18.53125 19.199219 C 18.820312 19.222656 19.113281 19.203125 19.398438 19.238281 C 19.515625 19.253906 19.789062 19.195312 19.847656 19.335938 C 19.882812 19.425781 19.847656 19.527344 19.753906 19.550781 C 19.511719 19.605469 19.222656 19.5625 18.976562 19.5625 C 18.878906 19.5625 18.757812 19.582031 18.671875 19.527344 C 18.601562 19.484375 18.601562 19.40625 18.589844 19.335938 L 17.984375 19.335938 C 17.984375 19.492188 17.96875 19.691406 18.0625 19.824219 C 18.164062 19.96875 18.335938 20.003906 18.5 20.019531 C 18.816406 20.054688 19.136719 20.042969 19.457031 20.042969 C 19.707031 20.042969 20.109375 20.089844 20.3125 19.90625 C 20.53125 19.699219 20.558594 19.0625 20.300781 18.878906 C 20.1875 18.796875 19.988281 18.835938 19.855469 18.835938 Z M 18.019531 18.835938 "/>
<path style=" stroke:none;fill-rule:nonzero;fill:rgb(1.176471%,63.529412%,88.627451%);fill-opacity:1;" d="M 35.480469 19.585938 C 35.574219 19.585938 35.734375 19.617188 35.820312 19.578125 C 35.871094 19.554688 35.898438 19.464844 35.925781 19.414062 C 36.023438 19.246094 36.136719 19.027344 36.164062 18.835938 L 35.957031 18.847656 L 35.820312 19.074219 Z M 35.480469 19.585938 "/>
<path style=" stroke:none;fill-rule:nonzero;fill:rgb(1.176471%,40.784314%,75.294118%);fill-opacity:1;" d="M 7.988281 18.847656 L 7.988281 20.019531 L 8.617188 20.019531 L 8.617188 19.3125 L 10.0625 19.3125 L 10.0625 18.847656 L 7.988281 18.847656 M 10.269531 18.847656 L 10.269531 20.019531 L 10.894531 20.019531 L 10.894531 19.3125 L 12.332031 19.3125 L 12.332031 18.847656 L 10.269531 18.847656 M 12.539062 18.847656 L 12.539062 20.019531 L 14.792969 20.019531 L 14.792969 19.519531 L 13.152344 19.519531 L 13.152344 19.210938 L 14.703125 19.210938 L 14.703125 18.847656 L 12.539062 18.847656 M 14.976562 18.847656 L 14.976562 20.019531 L 15.613281 20.019531 L 15.601562 18.847656 L 14.976562 18.847656 M 15.886719 18.847656 C 16.058594 19.144531 16.289062 19.421875 16.484375 19.699219 C 16.542969 19.78125 16.632812 19.972656 16.722656 20.011719 C 16.804688 20.046875 16.949219 20.019531 17.039062 20.019531 L 17.792969 20.019531 L 17.792969 18.847656 L 17.164062 18.847656 L 17.164062 19.484375 C 17.085938 19.472656 17.046875 19.386719 17.003906 19.324219 C 16.914062 19.191406 16.804688 18.960938 16.671875 18.863281 C 16.617188 18.824219 16.511719 18.847656 16.445312 18.847656 L 15.886719 18.847656 M 20.675781 18.847656 L 20.675781 20.019531 L 21.324219 20.019531 L 21.324219 18.847656 L 20.675781 18.847656 M 21.839844 18.847656 C 21.957031 19.132812 22.113281 19.410156 22.25 19.6875 C 22.292969 19.773438 22.34375 19.957031 22.421875 20.007812 C 22.503906 20.058594 22.722656 20.019531 22.816406 20.019531 L 23.207031 20.019531 C 23.25 20.019531 23.320312 20.03125 23.359375 20.007812 C 23.4375 19.960938 23.484375 19.78125 23.523438 19.699219 C 23.660156 19.425781 23.835938 19.136719 23.933594 18.847656 L 23.433594 18.847656 C 23.386719 18.847656 23.289062 18.828125 23.25 18.863281 C 23.148438 18.964844 23.078125 19.203125 23.019531 19.335938 C 22.992188 19.394531 22.964844 19.496094 22.886719 19.496094 C 22.8125 19.496094 22.789062 19.390625 22.765625 19.335938 C 22.710938 19.230469 22.65625 19.125 22.605469 19.015625 C 22.582031 18.96875 22.566406 18.898438 22.527344 18.863281 C 22.484375 18.828125 22.390625 18.847656 22.339844 18.847656 L 21.839844 18.847656 M 24.4375 18.847656 L 24.4375 20.019531 L 26.695312 20.019531 L 26.695312 19.519531 L 25.050781 19.519531 L 25.050781 19.210938 L 26.601562 19.210938 L 26.601562 18.847656 Z M 24.4375 18.847656 "/>
<path style=" stroke:none;fill-rule:nonzero;fill:rgb(1.176471%,63.529412%,88.627451%);fill-opacity:1;" d="M 3.269531 18.859375 L 3.269531 19.121094 L 3.703125 19.121094 L 3.703125 18.859375 L 3.269531 18.859375 M 4.664062 18.9375 C 4.589844 18.957031 4.621094 19.078125 4.695312 19.054688 C 4.769531 19.03125 4.738281 18.914062 4.664062 18.9375 Z M 4.664062 18.9375 "/>
<path style=" stroke:none;fill-rule:nonzero;fill:rgb(6.666667%,74.901961%,95.294118%);fill-opacity:1;" d="M 4.664062 18.972656 C 4.636719 18.988281 4.664062 19.03125 4.691406 19.015625 C 4.722656 19 4.695312 18.957031 4.664062 18.972656 Z M 4.664062 18.972656 "/>
<path style=" stroke:none;fill-rule:nonzero;fill:rgb(1.176471%,63.529412%,88.627451%);fill-opacity:1;" d="M 5.628906 19.039062 L 5.628906 19.121094 L 6.097656 19.121094 C 6.09375 19.359375 5.980469 19.558594 5.882812 19.769531 C 5.945312 19.769531 6.082031 19.796875 6.136719 19.757812 C 6.175781 19.726562 6.199219 19.644531 6.214844 19.597656 C 6.269531 19.445312 6.3125 19.285156 6.3125 19.121094 L 7.660156 19.121094 L 7.660156 19.039062 Z M 5.628906 19.039062 "/>
<path style=" stroke:none;fill-rule:nonzero;fill:rgb(100%,100%,100%);fill-opacity:1;" d="M 29.929688 19.175781 C 29.929688 19.273438 29.914062 19.402344 29.972656 19.484375 C 30.023438 19.558594 30.121094 19.574219 30.203125 19.574219 C 30.363281 19.578125 30.523438 19.574219 30.683594 19.574219 C 30.78125 19.574219 31.007812 19.617188 31.089844 19.554688 C 31.167969 19.496094 31.167969 19.242188 31.082031 19.191406 C 31.003906 19.148438 30.859375 19.175781 30.773438 19.175781 Z M 29.929688 19.175781 "/>
<path style=" stroke:none;fill-rule:nonzero;fill:rgb(81.960784%,81.960784%,81.960784%);fill-opacity:1;" d="M 4.808594 20.886719 L 4.808594 19.960938 L 4.535156 19.960938 L 4.535156 20.429688 C 4.117188 20.328125 3.773438 20.191406 3.511719 19.824219 L 3.5 19.824219 C 3.5 19.921875 3.46875 20.082031 3.511719 20.167969 C 3.550781 20.25 3.664062 20.316406 3.738281 20.367188 C 3.972656 20.523438 4.253906 20.632812 4.535156 20.644531 L 4.535156 21.980469 L 4.808594 21.980469 L 4.808594 21.195312 C 5.585938 21.1875 6.3125 20.648438 6.648438 19.972656 C 6.753906 19.761719 6.847656 19.5 6.851562 19.257812 C 6.78125 19.257812 6.605469 19.222656 6.550781 19.269531 C 6.492188 19.3125 6.484375 19.527344 6.457031 19.597656 C 6.382812 19.816406 6.269531 20.027344 6.117188 20.203125 C 5.875 20.484375 5.566406 20.695312 5.207031 20.804688 C 5.078125 20.847656 4.9375 20.847656 4.808594 20.886719 Z M 4.808594 20.886719 "/>
<path style=" stroke:none;fill-rule:nonzero;fill:rgb(1.176471%,40.784314%,75.294118%);fill-opacity:1;" d="M 32.402344 21.84375 C 32.636719 21.789062 32.871094 21.765625 33.097656 21.695312 C 33.917969 21.441406 34.667969 20.976562 35.253906 20.351562 C 35.460938 20.128906 35.703125 19.867188 35.824219 19.585938 C 35.726562 19.585938 35.574219 19.558594 35.480469 19.59375 C 35.40625 19.625 35.339844 19.753906 35.285156 19.816406 C 35.136719 19.988281 34.972656 20.15625 34.808594 20.316406 C 34.378906 20.734375 33.863281 21.082031 33.339844 21.371094 C 33.128906 21.484375 32.917969 21.601562 32.699219 21.695312 C 32.617188 21.730469 32.453125 21.769531 32.402344 21.84375 Z M 32.402344 21.84375 "/>
<path style=" stroke:none;fill-rule:nonzero;fill:rgb(6.666667%,74.901961%,95.294118%);fill-opacity:1;" d="M 4.933594 20.40625 L 4.933594 20.625 C 5.394531 20.613281 5.976562 20.199219 6.132812 19.769531 C 6.0625 19.769531 5.960938 19.75 5.894531 19.777344 C 5.84375 19.796875 5.816406 19.855469 5.785156 19.894531 C 5.71875 19.976562 5.644531 20.050781 5.5625 20.117188 C 5.382812 20.265625 5.164062 20.363281 4.933594 20.40625 Z M 4.933594 20.40625 "/>
<path style=" stroke:none;fill-rule:nonzero;fill:rgb(1.176471%,63.529412%,88.627451%);fill-opacity:1;" d="M 3.269531 20.257812 C 3.269531 20.378906 3.230469 20.578125 3.277344 20.691406 C 3.296875 20.734375 3.359375 20.765625 3.398438 20.792969 C 3.515625 20.878906 3.652344 20.976562 3.796875 21.011719 C 3.796875 20.921875 3.828125 20.75 3.785156 20.671875 C 3.75 20.613281 3.644531 20.574219 3.589844 20.535156 C 3.472656 20.453125 3.378906 20.351562 3.269531 20.257812 Z M 3.269531 20.257812 "/>
<path style=" stroke:none;fill-rule:nonzero;fill:rgb(6.666667%,74.901961%,95.294118%);fill-opacity:1;" d="M 3.796875 20.667969 C 3.796875 20.757812 3.761719 20.925781 3.800781 21.007812 C 3.824219 21.046875 3.902344 21.0625 3.945312 21.078125 C 4.089844 21.132812 4.257812 21.175781 4.410156 21.183594 L 4.410156 20.863281 C 4.195312 20.855469 3.992188 20.75 3.796875 20.667969 Z M 3.796875 20.667969 "/>
</g>
</svg>
